<?xml version="1.0" encoding="UTF-8"?>
<svg id="Layer_1" data-name="Layer 1" xmlns="http://www.w3.org/2000/svg" viewBox="0 0 511.89 538.85">
  <defs>
    <style>
      .cls-1 {
        fill: #111312;
      }
    </style>
  </defs>
  <path class="cls-1" d="M185.47,203.98c-11.35,14.27-6.35,34.39,3.13,47.84.59.72,1.86,3.7,1.04,4.37l-26.58,21.71c-16.06-16.91-25.9-39.94-25.32-63.39.38-15.34,5.08-31.07,14.81-42.94,4.11-5.02,7.67-8.74,12.58-13.17,10.66-9.62,16.69-18.48,23.89-29.65,11.67-18.17,19.89-37.62,25.65-58.51,5.53-20.06,8.21-40.17,8.88-61C223.72,4.09,227.97,0,233.14,0l46.76.07c5.16,0,9.38,4.11,9.55,9.26.46,13.6.78,26.41,3.03,39.72,3.69,19.52,9.25,37.99,17.52,55.99,8.11,17.56,15.29,41.81,28.62,56.92-7.42-.11-14.54.61-21.48,2.13-17.3,3.78-34.56-6.36-40.3-23.11-6.18-18.03-10.62-37.58-15.62-53.75-7.26,25.32-23.68,51.46-38.57,73.51l-13.74,16.01c-8.19,8.8-15.78,17.6-23.43,27.22Z"/>
  <path class="cls-1" d="M371.43,305.91c-1.1-1.83-1-3.76.27-5.16,25.91-27.61,58.28-36.42,95.11-42.11-31.36-3.35-62.01-11.22-89.14-27.42l-25.03-14.95c-18.62-11.12-33.92-6.42-50.84,5.47l-8.49-9.37-16.16-19.07c14.35-13.89,32.32-17.4,52.05-19.59,12.46-1.38,25.3.78,36.16,6.89s19.87,12.47,30.76,17.77c22.91,11.14,47,21.36,72.45,24,11.39,1.18,22.21-.64,33.62-.69,5.3-.02,9.62,4.27,9.63,9.57l.06,42.84c0,5.27-4.25,9.56-9.52,9.58-45.52.2-86.21,23.39-125.18,50.87-.35-11.93.28-18.58-5.76-28.6Z"/>
  <path class="cls-1" d="M241.11,538.85c-5.25,0-9.55-4.22-9.58-9.47-.19-32.39-6.19-63.3-18.4-93.08-7.26-18.47-16.31-35.25-26.94-52.94,16.2,1.06,31.15-2.6,44.55-11.52,13.26,20.81,22.93,42.78,30.46,66.97,10.05-32.47,26.7-61.55,49.58-86.56,8.69-8.11,17.37-15.17,26.41-22.79l21.7-18.29c8.5,12.54,9.5,28.15,2.88,41.42-5.95,11.93-12.23,18.65-20.84,29.02-9.94,11.96-17.99,24.55-24.73,38.64-10.38,21.87-16.94,44.63-20.3,68.68-2,13.64-2.68,26.87-2.99,40.56-.12,5.2-4.38,9.34-9.57,9.35h-42.22Z"/>
  <path class="cls-1" d="M222.09,361.77c-26.19,15.91-46.65,6.87-67.46-10.73-42.24-35.7-90.08-56.7-145.07-56.75-5.27,0-9.53-4.3-9.53-9.57L0,233.2c0-5.29,4.29-9.59,9.59-9.58,14.6.03,28.84-3.11,43.49-5,26.24-3.32,50.69-13.78,74.59-26.24-4.85,16.94-5.6,28.54-1.53,45.99-25.92,11.65-53.52,17.83-81.53,20.2,45.01,6.02,87.22,22.62,123.26,49.81,20.34,15.35,37.94,33.37,54.22,53.4Z"/>
  <path class="cls-1" d="M294.56,283.43c-.59.46-2.74.37-3.37-.25l-83.71-82.7c9.95-11.09,14.61-16.67,26.19-26.38l17.24,19.22,65.97,66.92c-6.24,9.25-13.76,16.58-22.31,23.19Z"/>
  <path class="cls-1" d="M306.73,339.87l-2.98,3.63-26.18-23.86c21.75-18.64,41.15-38.11,59.4-59.67l20.48-24.61,30.53,22.5c-8.51,10.97-12.5,15.49-21.88,24.81l-59.37,57.21Z"/>
  <path class="cls-1" d="M289.14,357.67l-20.53,28.8-54.4-56.31c-.73-.76-1.57-1.65-1.71-2.29-.18-.77.64-2.46,1.24-3.11l20.1-21.43c.98-1.04,2.43-1.92,4.15-2.78l53.8,51.55c-.64,2.01-1.41,3.85-2.65,5.58Z"/>
  <path class="cls-1" d="M250.26,266.95l-49.59,50.59-31.04-25.37,56.02-50.96c.86-.43,2.57-.26,3.23.39l20.58,20.25c1.37,1.35,2.01,2.81.79,5.1Z"/>
</svg>