<?xml version="1.0" encoding="UTF-8"?>
<svg id="Layer_1" data-name="Layer 1" xmlns="http://www.w3.org/2000/svg" viewBox="0 0 1843.65 1843.65">
  <defs>
    <style>
      .cls-1 {
        fill: #fff;
      }

      .cls-2 {
        fill: #007a85;
      }
    </style>
  </defs>
  <circle class="cls-2" cx="921.83" cy="921.83" r="921.83"/>
  <g>
    <path class="cls-1" d="M819.83,827.12c-16.43,20.66-9.18,49.77,4.53,69.23.85,1.04,2.7,5.36,1.51,6.33l-38.47,31.42c-23.23-24.47-37.48-57.8-36.64-91.74.55-22.2,7.35-44.96,21.44-62.14,5.95-7.26,11.1-12.65,18.2-19.06,15.43-13.93,24.15-26.75,34.57-42.91,16.88-26.29,28.78-54.44,37.12-84.68,8.01-29.03,11.88-58.13,12.85-88.27.24-7.48,6.39-13.4,13.87-13.39l67.67.1c7.47.01,13.57,5.94,13.82,13.4.67,19.69,1.13,38.23,4.39,57.48,5.35,28.25,13.39,54.98,25.35,81.03,11.74,25.41,22.13,60.51,41.41,82.38-10.74-.16-21.05.89-31.09,3.08-25.04,5.47-50.01-9.2-58.32-33.44-8.95-26.09-15.37-54.39-22.61-77.78-10.51,36.64-34.27,74.47-55.82,106.38l-19.88,23.17c-11.85,12.73-22.84,25.47-33.91,39.39Z"/>
    <path class="cls-1" d="M1088.96,974.62c-1.6-2.65-1.45-5.45.4-7.47,37.49-39.95,84.34-52.71,137.64-60.94-45.38-4.84-89.74-16.23-129-39.69l-36.22-21.64c-26.95-16.1-49.08-9.29-73.57,7.91l-12.28-13.56-23.38-27.6c20.77-20.11,46.78-25.19,75.32-28.34,18.03-2,36.61,1.13,52.34,9.97,15.24,8.57,28.75,18.04,44.51,25.71,33.15,16.12,68.02,30.92,104.85,34.73,16.49,1.71,32.14-.93,48.66-1,7.67-.03,13.92,6.17,13.93,13.85l.09,61.99c0,7.62-6.15,13.83-13.78,13.87-65.87.29-124.75,33.85-181.15,73.61-.5-17.27.41-26.88-8.33-41.39Z"/>
    <path class="cls-1" d="M900.36,1311.72c-7.59,0-13.81-6.11-13.86-13.7-.27-46.87-8.96-91.6-26.63-134.7-10.51-26.73-23.61-51.01-38.99-76.61,23.44,1.54,45.08-3.76,64.47-16.67,19.19,30.12,33.18,61.91,44.09,96.92,14.55-46.99,38.64-89.08,71.75-125.26,12.58-11.74,25.14-21.96,38.21-32.98l31.4-26.47c12.3,18.15,13.75,40.74,4.17,59.94-8.61,17.26-17.7,27-30.16,42-14.38,17.31-26.03,35.52-35.79,55.92-15.02,31.65-24.51,64.59-29.38,99.39-2.89,19.75-3.88,38.88-4.33,58.7-.17,7.52-6.33,13.52-13.85,13.52h-61.09Z"/>
    <path class="cls-1" d="M872.83,1055.47c-37.9,23.02-67.51,9.94-97.63-15.52-61.12-51.67-130.35-82.05-209.93-82.12-7.62,0-13.79-6.23-13.79-13.85l-.04-74.57c0-7.66,6.21-13.88,13.87-13.87,21.12.05,41.73-4.5,62.94-7.23,37.97-4.8,73.36-19.94,107.95-37.97-7.01,24.52-8.1,41.3-2.21,66.55-37.51,16.86-77.45,25.8-117.99,29.23,65.14,8.71,126.22,32.74,178.37,72.08,29.44,22.21,54.91,48.28,78.47,77.27Z"/>
    <path class="cls-1" d="M977.71,942.09c-.86.66-3.96.54-4.88-.37l-121.15-119.68c14.41-16.05,21.14-24.13,37.9-38.18l24.95,27.82,95.47,96.84c-9.03,13.38-19.92,24-32.29,33.56Z"/>
    <path class="cls-1" d="M995.31,1023.77l-4.31,5.26-37.89-34.53c31.47-26.98,59.55-55.14,85.96-86.36l29.64-35.62,44.18,32.56c-12.32,15.87-18.09,22.42-31.66,35.9l-85.92,82.79Z"/>
    <path class="cls-1" d="M969.87,1049.53l-29.71,41.67-78.72-81.49c-1.06-1.1-2.27-2.39-2.48-3.32-.26-1.11.92-3.56,1.8-4.5l29.08-31.01c1.41-1.51,3.52-2.77,6.01-4.02l77.85,74.59c-.93,2.9-2.04,5.57-3.83,8.08Z"/>
    <path class="cls-1" d="M913.59,918.25l-71.76,73.21-44.91-36.71,81.07-73.75c1.25-.63,3.72-.38,4.67.56l29.78,29.3c1.98,1.95,2.91,4.06,1.15,7.38Z"/>
  </g>
</svg>