<?xml version="1.0" encoding="UTF-8"?>
<svg id="Layer_1" data-name="Layer 1" xmlns="http://www.w3.org/2000/svg" viewBox="0 0 1226.64 1226.64">
  <defs>
    <style>
      .cls-1 {
        fill: #fff;
      }

      .cls-2 {
        fill: #007a85;
      }
    </style>
  </defs>
  <rect class="cls-1" width="1226.64" height="1226.64" rx="203.81" ry="203.81"/>
  <g>
    <path class="cls-2" d="M533.62,561.45c-11.8,14.83-6.59,35.73,3.25,49.71.61.75,1.94,3.85,1.08,4.54l-27.62,22.56c-16.68-17.57-26.91-41.5-26.31-65.87.39-15.94,5.28-32.28,15.39-44.61,4.27-5.21,7.97-9.08,13.07-13.69,11.08-10,17.34-19.2,24.82-30.81,12.12-18.88,20.67-39.09,26.65-60.8,5.75-20.84,8.53-41.74,9.22-63.38.17-5.37,4.59-9.62,9.96-9.61l48.59.08c5.36,0,9.74,4.27,9.92,9.62.48,14.13.81,27.45,3.15,41.27,3.84,20.28,9.62,39.47,18.2,58.18,8.43,18.24,15.89,43.45,29.73,59.15-7.71-.11-15.11.64-22.32,2.21-17.98,3.93-35.91-6.6-41.87-24.01-6.42-18.73-11.04-39.05-16.23-55.85-7.54,26.31-24.61,53.47-40.08,76.38l-14.27,16.63c-8.51,9.14-16.4,18.29-24.35,28.28Z"/>
    <path class="cls-2" d="M726.84,667.36c-1.15-1.9-1.04-3.91.29-5.36,26.92-28.69,60.55-37.84,98.82-43.76-32.58-3.48-64.43-11.66-92.62-28.49l-26.01-15.53c-19.35-11.56-35.24-6.67-52.82,5.68l-8.82-9.74-16.79-19.82c14.91-14.44,33.58-18.08,54.08-20.35,12.95-1.43,26.29.81,37.58,7.16,10.94,6.16,20.64,12.95,31.96,18.46,23.8,11.58,48.84,22.2,75.28,24.93,11.84,1.23,23.08-.67,34.94-.72,5.51-.02,10,4.43,10,9.94l.06,44.51c0,5.47-4.42,9.93-9.89,9.96-47.3.21-89.57,24.3-130.06,52.85-.36-12.4.29-19.3-5.98-29.72Z"/>
    <path class="cls-2" d="M591.44,909.39c-5.45,0-9.92-4.38-9.95-9.83-.19-33.65-6.43-65.77-19.12-96.72-7.54-19.19-16.95-36.63-27.99-55,16.83,1.1,32.37-2.7,46.29-11.97,13.77,21.63,23.82,44.45,31.65,69.58,10.44-33.74,27.74-63.95,51.51-89.94,9.03-8.43,18.05-15.77,27.44-23.68l22.54-19.01c8.83,13.03,9.87,29.25,3,43.04-6.18,12.39-12.71,19.38-21.66,30.15-10.32,12.43-18.69,25.5-25.7,40.15-10.79,22.73-17.6,46.37-21.09,71.36-2.08,14.18-2.78,27.91-3.11,42.14-.12,5.4-4.55,9.71-9.95,9.71h-43.86Z"/>
    <path class="cls-2" d="M571.67,725.4c-27.21,16.53-48.47,7.13-70.1-11.15-43.88-37.1-93.59-58.91-150.73-58.96-5.47,0-9.9-4.47-9.9-9.94l-.03-53.54c0-5.5,4.46-9.97,9.96-9.96,15.17.03,29.96-3.23,45.19-5.19,27.26-3.45,52.67-14.32,77.5-27.26-5.04,17.6-5.81,29.66-1.59,47.78-26.93,12.11-55.61,18.52-84.71,20.99,46.77,6.26,90.62,23.5,128.07,51.75,21.14,15.95,39.43,34.67,56.34,55.48Z"/>
    <path class="cls-2" d="M646.97,644c-.62.48-2.84.39-3.5-.26l-86.98-85.93c10.34-11.52,15.18-17.32,27.21-27.41l17.91,19.97,68.55,69.53c-6.48,9.61-14.3,17.23-23.18,24.1Z"/>
    <path class="cls-2" d="M659.61,702.64l-3.09,3.78-27.2-24.79c22.6-19.37,42.75-39.59,61.72-62l21.28-25.57,31.72,23.38c-8.84,11.4-12.99,16.1-22.73,25.77l-61.69,59.44Z"/>
    <path class="cls-2" d="M641.34,721.14l-21.33,29.92-56.52-58.51c-.76-.79-1.63-1.71-1.78-2.38-.19-.8.66-2.56,1.29-3.23l20.88-22.27c1.02-1.08,2.53-1.99,4.31-2.89l55.89,53.56c-.67,2.08-1.46,4-2.75,5.8Z"/>
    <path class="cls-2" d="M600.94,626.88l-51.52,52.56-32.25-26.36,58.2-52.95c.89-.45,2.67-.27,3.35.4l21.38,21.04c1.42,1.4,2.09,2.91.83,5.3Z"/>
  </g>
</svg>