<?xml version="1.0" encoding="UTF-8"?>
<svg id="Layer_1" data-name="Layer 1" xmlns="http://www.w3.org/2000/svg" viewBox="0 0 1645.39 376.23">
  <defs>
    <style>
      .cls-1 {
        fill: #fff;
      }
    </style>
  </defs>
  <path class="cls-1" d="M87.75,269.83l-34.37,96.7c-1.05,2.96-3.86,4.94-7,4.94H7.43c-5.12,0-8.71-5.07-7-9.9L126.32,4.95c1.05-2.97,3.85-4.95,7-4.95h57.82c3.11,0,5.89,1.94,6.97,4.86l131.3,356.61c1.79,4.85-1.8,9.99-6.97,9.99h-42.7c-3.11,0-5.9-1.94-6.97-4.86l-35.61-96.85c-1.07-2.92-3.86-4.86-6.97-4.86H94.75c-3.14,0-5.95,1.98-7,4.94ZM211.3,218.21c5.14,0,8.72-5.1,6.99-9.94-31.48-87.71-49.39-136.63-57.31-164.85h-.53c-8.72,31.14-28.53,89.38-54.06,164.98-1.63,4.81,1.95,9.81,7.03,9.81h97.88Z"/>
  <path class="cls-1" d="M416.23,371.47c-4.1,0-7.43-3.33-7.43-7.43v-127.89c0-3.7-.83-7.44-2.62-10.26L282.29,11.14c-2.86-4.95.72-11.14,6.43-11.14h45.62c2.71,0,5.19,1.47,6.5,3.84,29.23,53,71.17,129.01,91.96,168.64,2.79,5.33,10.42,5.3,13.18-.05,20.34-39.43,63.8-116.27,93.86-168.7,1.32-2.31,3.78-3.73,6.44-3.73h41.25c5.75,0,9.32,6.26,6.39,11.21l-127.36,215.12c-1.31,2.38-2.33,4.28-2.33,9.97v127.74c0,4.1-3.33,7.43-7.43,7.43h-40.57Z"/>
  <path class="cls-1" d="M689.26,0c4.1,0,7.43,3.33,7.43,7.43v215.7c0,84.65,45.95,107.89,92.09,107.89,53.83,0,91.12-25.48,91.12-107.89V7.43c0-4.1,3.33-7.43,7.43-7.43h40.57c4.1,0,7.43,3.33,7.43,7.43v212.88c0,121.75-68.12,155.93-147.61,155.93s-146.74-36.71-146.74-152.82V7.43c0-4.1,3.33-7.43,7.43-7.43h40.86Z"/>
  <path class="cls-1" d="M1051.63,218.1v145.94c0,4.1-3.33,7.43-7.43,7.43h-39.6c-4.1,0-7.43-3.33-7.43-7.43V7.43c0-4.1,3.33-7.43,7.43-7.43h141.16c77.21,0,118.44,42.01,118.44,99.87,0,40.48-19.18,67.25-45.21,80.87-5.26,2.75-5.43,10.22-.22,13.06,21.34,11.66,38.57,36.09,38.57,88.25v16.38c0,21.35-.65,47.03,2.66,64.15.89,4.6-2.59,8.88-7.28,8.88h-38.28c-3.29,0-6.21-2.16-7.13-5.32-4.83-16.68-4.71-43.12-4.71-75.2v-7.44c0-50.57-14.05-72.84-79.4-72.84h-64.15c-4.1,0-7.43,3.33-7.43,7.43ZM1051.63,157.55c0,4.1,3.33,7.43,7.43,7.43h70.81c54.36,0,77.8-20.47,77.8-60.2s-24.6-59.08-72.93-59.08h-75.67c-4.1,0-7.43,3.33-7.43,7.43v104.42Z"/>
  <path class="cls-1" d="M1403.26,269.83l-34.37,96.7c-1.05,2.96-3.86,4.94-7,4.94h-38.95c-5.12,0-8.71-5.07-7-9.9L1441.83,4.95c1.05-2.97,3.85-4.95,7-4.95h57.82c3.11,0,5.89,1.94,6.97,4.86l131.3,356.61c1.79,4.85-1.8,9.99-6.97,9.99h-42.7c-3.11,0-5.9-1.94-6.97-4.86l-35.61-96.85c-1.07-2.92-3.86-4.86-6.97-4.86h-135.44c-3.14,0-5.95,1.98-7,4.94ZM1526.81,218.21c5.14,0,8.72-5.1,6.99-9.94-31.48-87.71-49.39-136.63-57.31-164.85h-.53c-8.72,31.14-28.53,89.38-54.06,164.98-1.63,4.81,1.95,9.81,7.03,9.81h97.88Z"/>
</svg>