<?xml version="1.0" encoding="UTF-8"?>
<svg id="Layer_1" data-name="Layer 1" xmlns="http://www.w3.org/2000/svg" viewBox="0 0 550 557.2">
  <defs>
    <style>
      .cls-1 {
        fill: #007a85;
      }
    </style>
  </defs>
  <g>
    <path class="cls-1" d="M191.78,210.93c-11.74,14.76-6.56,35.56,3.24,49.47.61.74,1.93,3.83,1.08,4.52l-27.49,22.45c-16.6-17.49-26.78-41.3-26.18-65.55.39-15.86,5.25-32.13,15.32-44.4,4.25-5.19,7.93-9.04,13.01-13.62,11.02-9.95,17.25-19.11,24.7-30.66,12.07-18.79,20.57-38.9,26.53-60.51,5.72-20.74,8.49-41.54,9.18-63.07C231.34,4.22,235.73,0,241.08,0l48.35.07c5.33,0,9.7,4.25,9.88,9.58.48,14.07.8,27.31,3.13,41.07,3.82,20.19,9.57,39.28,18.12,57.9,8.39,18.16,15.81,43.24,29.59,58.86-7.68-.11-15.04.63-22.21,2.2-17.89,3.91-35.73-6.57-41.67-23.89-6.39-18.64-10.98-38.86-16.16-55.58-7.51,26.18-24.49,53.21-39.89,76.01l-14.21,16.56c-8.46,9.1-16.32,18.2-24.23,28.15Z"/>
    <path class="cls-1" d="M384.09,316.33c-1.14-1.89-1.04-3.89.28-5.34,26.79-28.55,60.26-37.66,98.35-43.55-32.42-3.46-64.12-11.6-92.18-28.36l-25.88-15.46c-19.25-11.5-35.07-6.64-52.57,5.66l-8.78-9.69-16.71-19.72c14.84-14.37,33.42-18,53.82-20.25,12.89-1.43,26.16.81,37.4,7.13s20.54,12.89,31.81,18.37c23.69,11.52,48.61,22.09,74.92,24.81,11.78,1.22,22.97-.67,34.77-.72,5.48-.02,9.95,4.41,9.95,9.9l.06,44.3c0,5.45-4.4,9.88-9.84,9.91-47.07.21-89.14,24.19-129.44,52.6-.36-12.34.29-19.21-5.96-29.58Z"/>
    <path class="cls-1" d="M249.33,557.2c-5.42,0-9.87-4.36-9.9-9.79-.19-33.49-6.4-65.46-19.03-96.25-7.51-19.1-16.87-36.45-27.86-54.74,16.75,1.1,32.21-2.69,46.07-11.91,13.71,21.52,23.71,44.24,31.5,69.25,10.4-33.57,27.61-63.65,51.27-89.51,8.99-8.39,17.96-15.69,27.31-23.57l22.44-18.91c8.79,12.97,9.83,29.11,2.98,42.83-6.15,12.33-12.65,19.29-21.55,30.01-10.27,12.37-18.6,25.38-25.58,39.96-10.73,22.62-17.51,46.15-20.99,71.02-2.07,14.11-2.77,27.78-3.1,41.94-.12,5.37-4.52,9.66-9.9,9.66h-43.66Z"/>
    <path class="cls-1" d="M229.65,374.09c-27.08,16.45-48.24,7.1-69.76-11.09-43.67-36.92-93.15-58.63-150.01-58.68-5.45,0-9.85-4.45-9.85-9.9L0,241.14c0-5.47,4.44-9.92,9.91-9.91,15.09.03,29.82-3.22,44.97-5.17,27.13-3.43,52.42-14.25,77.13-27.13-5.01,17.52-5.79,29.51-1.58,47.56-26.8,12.05-55.34,18.43-84.31,20.89,46.55,6.23,90.19,23.39,127.45,51.5,21.04,15.87,39.24,34.5,56.07,55.21Z"/>
    <path class="cls-1" d="M304.6,293.08c-.61.47-2.83.39-3.49-.26l-86.56-85.52c10.29-11.47,15.11-17.24,27.08-27.28l17.83,19.88,68.22,69.2c-6.45,9.56-14.23,17.15-23.07,23.98Z"/>
    <path class="cls-1" d="M317.17,351.45l-3.08,3.76-27.07-24.67c22.49-19.28,42.55-39.4,61.42-61.71l21.18-25.45,31.57,23.27c-8.8,11.34-12.93,16.02-22.63,25.65l-61.39,59.15Z"/>
    <path class="cls-1" d="M298.99,369.85l-21.23,29.78-56.25-58.23c-.76-.79-1.62-1.71-1.77-2.37-.18-.8.66-2.55,1.29-3.21l20.78-22.16c1.01-1.08,2.52-1.98,4.29-2.88l55.63,53.3c-.67,2.08-1.46,3.98-2.74,5.77Z"/>
    <path class="cls-1" d="M258.78,276.04l-51.28,52.31-32.09-26.23,57.93-52.7c.89-.45,2.66-.27,3.34.4l21.28,20.94c1.42,1.39,2.08,2.9.82,5.28Z"/>
  </g>
</svg>