<?xml version="1.0" encoding="UTF-8"?>
<svg id="Layer_1" data-name="Layer 1" xmlns="http://www.w3.org/2000/svg" viewBox="0 0 2267.59 557.2">
  <defs>
    <style>
      .cls-1 {
        fill: #111312;
      }
    </style>
  </defs>
  <g>
    <path class="cls-1" d="M191.78,210.93c-11.74,14.76-6.56,35.56,3.24,49.47.61.74,1.93,3.83,1.08,4.52l-27.49,22.45c-16.6-17.49-26.78-41.3-26.18-65.55.39-15.86,5.25-32.13,15.32-44.4,4.25-5.19,7.93-9.04,13.01-13.62,11.02-9.95,17.25-19.11,24.7-30.66,12.07-18.79,20.57-38.9,26.53-60.51,5.72-20.74,8.49-41.54,9.18-63.07C231.34,4.22,235.73,0,241.08,0l48.35.07c5.33,0,9.7,4.25,9.88,9.58.48,14.07.8,27.31,3.13,41.07,3.82,20.19,9.57,39.28,18.12,57.9,8.39,18.16,15.81,43.24,29.59,58.86-7.68-.11-15.04.63-22.21,2.2-17.89,3.91-35.73-6.57-41.67-23.89-6.39-18.64-10.98-38.86-16.16-55.58-7.51,26.18-24.49,53.21-39.89,76.01l-14.21,16.56c-8.46,9.1-16.32,18.2-24.23,28.15Z"/>
    <path class="cls-1" d="M384.09,316.33c-1.14-1.89-1.04-3.89.28-5.34,26.79-28.55,60.26-37.66,98.35-43.55-32.42-3.46-64.12-11.6-92.18-28.36l-25.88-15.46c-19.25-11.5-35.07-6.64-52.57,5.66l-8.78-9.69-16.71-19.72c14.84-14.37,33.42-18,53.82-20.25,12.89-1.43,26.16.81,37.4,7.13,10.89,6.13,20.54,12.89,31.81,18.37,23.69,11.52,48.61,22.09,74.92,24.81,11.78,1.22,22.97-.67,34.77-.72,5.48-.02,9.95,4.41,9.95,9.9l.06,44.3c0,5.45-4.4,9.88-9.84,9.91-47.07.21-89.14,24.19-129.44,52.6-.36-12.34.29-19.21-5.96-29.58Z"/>
    <path class="cls-1" d="M249.33,557.2c-5.42,0-9.87-4.36-9.9-9.79-.19-33.49-6.4-65.46-19.03-96.25-7.51-19.1-16.87-36.45-27.86-54.74,16.75,1.1,32.21-2.69,46.07-11.91,13.71,21.52,23.71,44.24,31.5,69.25,10.4-33.57,27.61-63.65,51.27-89.51,8.99-8.39,17.96-15.69,27.31-23.57l22.44-18.91c8.79,12.97,9.83,29.11,2.98,42.83-6.15,12.33-12.65,19.29-21.55,30.01-10.27,12.37-18.6,25.38-25.58,39.96-10.73,22.62-17.51,46.15-20.99,71.02-2.07,14.11-2.77,27.78-3.1,41.94-.12,5.37-4.52,9.66-9.9,9.66h-43.66Z"/>
    <path class="cls-1" d="M229.65,374.09c-27.08,16.45-48.24,7.1-69.76-11.09-43.67-36.92-93.15-58.63-150.01-58.68-5.45,0-9.85-4.45-9.85-9.9L0,241.14c0-5.47,4.44-9.92,9.91-9.91,15.09.03,29.82-3.22,44.97-5.17,27.13-3.43,52.42-14.25,77.13-27.13-5.01,17.52-5.79,29.51-1.58,47.56-26.8,12.05-55.34,18.43-84.31,20.89,46.55,6.23,90.19,23.39,127.45,51.5,21.04,15.87,39.24,34.5,56.07,55.21Z"/>
    <path class="cls-1" d="M304.6,293.08c-.61.47-2.83.39-3.49-.26l-86.56-85.52c10.29-11.47,15.11-17.24,27.08-27.28l17.83,19.88,68.22,69.2c-6.45,9.56-14.23,17.15-23.07,23.98Z"/>
    <path class="cls-1" d="M317.17,351.45l-3.08,3.76-27.07-24.67c22.49-19.28,42.55-39.4,61.42-61.71l21.18-25.45,31.57,23.27c-8.8,11.34-12.93,16.02-22.63,25.65l-61.39,59.15Z"/>
    <path class="cls-1" d="M298.99,369.85l-21.23,29.78-56.25-58.23c-.76-.79-1.62-1.71-1.77-2.37-.18-.8.66-2.55,1.29-3.21l20.78-22.16c1.01-1.08,2.52-1.98,4.29-2.88l55.63,53.3c-.67,2.08-1.46,3.98-2.74,5.77Z"/>
    <path class="cls-1" d="M258.78,276.04l-51.28,52.31-32.09-26.23,57.93-52.7c.89-.45,2.66-.27,3.34.4l21.28,20.94c1.42,1.39,2.08,2.9.82,5.28Z"/>
  </g>
  <g>
    <path class="cls-1" d="M709.95,362.69l-34.37,96.7c-1.05,2.96-3.86,4.94-7,4.94h-38.95c-5.12,0-8.71-5.07-7-9.9l125.89-356.61c1.05-2.97,3.85-4.95,7-4.95h57.82c3.11,0,5.89,1.94,6.97,4.86l131.3,356.61c1.79,4.85-1.8,9.99-6.97,9.99h-42.7c-3.11,0-5.9-1.94-6.97-4.86l-35.61-96.85c-1.07-2.92-3.86-4.86-6.97-4.86h-135.44c-3.14,0-5.95,1.98-7,4.94ZM833.5,311.08c5.14,0,8.72-5.1,6.99-9.94-31.48-87.71-49.39-136.63-57.31-164.85h-.53c-8.72,31.14-28.53,89.38-54.06,164.98-1.63,4.81,1.95,9.81,7.03,9.81h97.88Z"/>
    <path class="cls-1" d="M1038.42,464.34c-4.1,0-7.43-3.33-7.43-7.43v-127.89c0-3.7-.83-7.44-2.62-10.26l-123.88-214.76c-2.86-4.95.72-11.14,6.43-11.14h45.62c2.71,0,5.19,1.47,6.5,3.84,29.23,53,71.17,129.01,91.96,168.64,2.79,5.33,10.42,5.3,13.18-.05,20.34-39.43,63.8-116.27,93.86-168.7,1.32-2.31,3.78-3.73,6.44-3.73h41.25c5.75,0,9.32,6.26,6.39,11.21l-127.36,215.12c-1.31,2.38-2.33,4.28-2.33,9.97v127.74c0,4.1-3.33,7.43-7.43,7.43h-40.57Z"/>
    <path class="cls-1" d="M1311.45,92.87c4.1,0,7.43,3.33,7.43,7.43v215.7c0,84.65,45.95,107.89,92.09,107.89,53.83,0,91.12-25.48,91.12-107.89V100.29c0-4.1,3.33-7.43,7.43-7.43h40.57c4.1,0,7.43,3.33,7.43,7.43v212.88c0,121.75-68.12,155.93-147.61,155.93s-146.74-36.71-146.74-152.82V100.29c0-4.1,3.33-7.43,7.43-7.43h40.86Z"/>
    <path class="cls-1" d="M1673.83,310.97v145.94c0,4.1-3.33,7.43-7.43,7.43h-39.6c-4.1,0-7.43-3.33-7.43-7.43V100.29c0-4.1,3.33-7.43,7.43-7.43h141.16c77.21,0,118.44,42.01,118.44,99.87,0,40.48-19.18,67.25-45.21,80.87-5.26,2.75-5.43,10.22-.22,13.06,21.34,11.66,38.57,36.09,38.57,88.25v16.38c0,21.35-.65,47.03,2.66,64.15.89,4.6-2.59,8.88-7.28,8.88h-38.28c-3.29,0-6.21-2.16-7.13-5.32-4.83-16.68-4.71-43.12-4.71-75.2v-7.44c0-50.57-14.05-72.84-79.4-72.84h-64.15c-4.1,0-7.43,3.33-7.43,7.43ZM1673.83,250.41c0,4.1,3.33,7.43,7.43,7.43h70.81c54.36,0,77.8-20.47,77.8-60.2s-24.6-59.08-72.93-59.08h-75.67c-4.1,0-7.43,3.33-7.43,7.43v104.42Z"/>
    <path class="cls-1" d="M2025.45,362.69l-34.37,96.7c-1.05,2.96-3.86,4.94-7,4.94h-38.95c-5.12,0-8.71-5.07-7-9.9l125.89-356.61c1.05-2.97,3.85-4.95,7-4.95h57.82c3.11,0,5.89,1.94,6.97,4.86l131.3,356.61c1.79,4.85-1.8,9.99-6.97,9.99h-42.7c-3.11,0-5.9-1.94-6.97-4.86l-35.61-96.85c-1.07-2.92-3.86-4.86-6.97-4.86h-135.44c-3.14,0-5.95,1.98-7,4.94ZM2149.01,311.08c5.14,0,8.72-5.1,6.99-9.94-31.48-87.71-49.39-136.63-57.31-164.85h-.53c-8.72,31.14-28.53,89.38-54.06,164.98-1.63,4.81,1.95,9.81,7.03,9.81h97.88Z"/>
  </g>
</svg>